<?xml version="1.0" standalone="no"?>
<!DOCTYPE svg PUBLIC "-//W3C//DTD SVG 20010904//EN"
 "http://www.w3.org/TR/2001/REC-SVG-20010904/DTD/svg10.dtd">
<svg version="1.0" xmlns="http://www.w3.org/2000/svg"
 width="304.000000pt" height="304.000000pt" viewBox="0 0 304.000000 304.000000"
 preserveAspectRatio="xMidYMid meet">
<metadata>
Created by potrace 1.14, written by Peter Selinger 2001-2017
</metadata>
<g transform="translate(0.000000,304.000000) scale(0.100000,-0.100000)"
fill="#000000" stroke="none">
<path d="M0 1520 l0 -1520 1520 0 1520 0 0 1520 0 1520 -1520 0 -1520 0 0
-1520z m1764 827 c201 -100 317 -334 333 -673 15 -329 -81 -637 -254 -810
-173 -172 -418 -211 -642 -101 -84 41 -203 157 -260 253 -125 213 -166 549
-96 789 54 187 129 310 270 443 85 81 112 95 133 69 9 -10 1 -24 -34 -58 -184
-179 -279 -551 -234 -919 42 -341 210 -565 440 -586 232 -22 399 126 477 423
22 86 26 124 30 309 7 298 -17 456 -96 619 -72 150 -161 219 -281 219 -78 1
-121 -18 -180 -77 -119 -120 -188 -430 -161 -729 6 -68 16 -139 22 -156 13
-38 11 -42 -27 -45 -25 -2 -31 5 -61 63 -49 97 -67 199 -60 350 11 226 84 416
204 531 106 102 181 131 316 125 77 -3 98 -8 161 -39z"/>
</g>
</svg>
